<svg width="98" height="49" viewBox="0 0 98 49" fill="none" xmlns="http://www.w3.org/2000/svg">
<path d="M83.5716 24.6217C84.9272 24.6217 86.2608 24.6406 87.5935 24.6145C88.3702 24.5992 89.1476 24.5247 89.8892 24.2625C91.1618 23.8127 91.966 22.953 92.1991 21.6461C92.3547 20.7735 92.2866 19.8985 91.8746 19.0939C91.4958 18.3542 90.8715 17.8446 90.0856 17.539C89.3189 17.2409 88.5165 17.1287 87.6918 17.13C84.6268 17.1349 81.5619 17.132 78.4969 17.132H78.2401V13.0059H78.4726C81.8211 13.0059 85.1696 12.9947 88.518 13.0157C89.1593 13.0198 89.8007 13.144 90.4404 13.2247C91.2844 13.3312 92.0888 13.5816 92.8691 13.9045C93.5914 14.2034 94.2622 14.5874 94.8668 15.0811C95.5081 15.6048 96.0515 16.2037 96.4701 16.9133C96.839 17.5388 97.0998 18.1989 97.2706 18.9015C97.4588 19.6752 97.5281 20.4577 97.4902 21.2457C97.4267 22.5623 97.1348 23.8228 96.3637 24.9338C96.0835 25.3374 95.7934 25.7453 95.4442 26.0899C94.9507 26.5767 94.3937 27.0004 93.7602 27.3141C93.5038 27.4411 93.2494 27.5721 92.9766 27.7102L97.9473 34.6677H97.7049C95.9885 34.6677 94.2722 34.6661 92.5558 34.6707C92.4128 34.6711 92.3314 34.6344 92.2466 34.5123C91.5174 33.4612 90.7797 32.4157 90.0393 31.3721C89.4167 30.4945 88.788 29.621 88.1578 28.7486C88.1258 28.7043 88.0537 28.662 88.0002 28.6618C86.4841 28.6571 84.9681 28.6581 83.4327 28.6581V34.6554H78.2423V20.866H83.4257V21.0855C83.4257 22.1991 83.4248 23.3128 83.4277 24.4265C83.4279 24.5071 83.3681 24.6408 83.5716 24.6217Z" fill="#0F172A"/>
<path d="M61.2641 13.0058H73.8022V17.0339H62.1974V21.6988H72.4235V25.6462H62.1966V30.5802H74.2173V34.6555H57.0469V13.0058H61.2641ZM38.5048 17.1318H34.1961V13.0058H34.4164C37.7728 13.0058 41.1293 12.9858 44.4853 13.0201C45.3028 13.0285 46.1234 13.187 46.9333 13.3275C47.7968 13.4773 48.6283 13.7603 49.3921 14.1803C49.934 14.4783 50.4431 14.84 50.9394 15.2083C51.6808 15.7583 52.2059 16.4897 52.6228 17.2921C52.9732 17.9665 53.2196 18.6796 53.307 19.4345C53.3688 19.9677 53.4481 20.5047 53.438 21.0385C53.4183 22.0847 53.2271 23.1049 52.7915 24.0733C52.5077 24.7041 52.1278 25.2683 51.6755 25.797C51.0634 26.5125 50.3094 27.0413 49.4793 27.4786C48.5794 27.9525 47.6229 28.2746 46.6133 28.4309C46.007 28.5247 45.3962 28.6339 44.7853 28.6484C43.0117 28.6902 41.2371 28.6879 39.4628 28.7028C39.4264 28.703 39.3899 28.7028 39.334 28.7028V34.658H34.1921V20.8706H39.3197V24.5647C39.4035 24.5694 39.469 24.5762 39.5346 24.5762C41.0212 24.5768 42.5087 24.6076 43.9941 24.5664C45.0776 24.5362 46.1275 24.3006 46.9993 23.6146C47.6082 23.1355 47.9726 22.4924 48.109 21.7415C48.1704 21.4029 48.2109 21.0535 48.1995 20.711C48.1669 19.7205 47.8525 18.833 47.0693 18.1577C46.5523 17.7119 45.9351 17.4373 45.2619 17.3186C44.717 17.2225 44.1606 17.1474 43.6081 17.1401C41.9149 17.1174 40.2213 17.1318 38.5048 17.1318ZM6.96367 17.1318H1V13.0058H1.21863C4.57459 13.0058 7.93055 12.9946 11.2863 13.0158C11.9118 13.0198 12.5363 13.1548 13.1615 13.2277C13.881 13.3115 14.568 13.5173 15.2402 13.7692C16.0552 14.0746 16.8222 14.4666 17.5029 15.0094C18.1233 15.5041 18.6603 16.0689 19.0855 16.7336C19.5411 17.4459 19.8375 18.2155 20.0275 19.0344C20.219 19.8589 20.2528 20.6937 20.1956 21.5242C20.0927 23.0161 19.6308 24.396 18.6503 25.5769C17.7606 26.6483 16.6408 27.4019 15.325 27.9033C14.5954 28.1813 13.8454 28.3741 13.0818 28.5141C12.6105 28.6005 12.1251 28.6476 11.6455 28.6517C9.81879 28.6671 7.99189 28.6579 6.14577 28.6579V34.6538H1.00023V20.8677H6.12866V24.5767H6.36857C7.82434 24.5767 9.28089 24.6057 10.7356 24.5668C11.7555 24.5394 12.741 24.3294 13.6058 23.736C14.275 23.2768 14.695 22.6509 14.8598 21.8926C15.0719 20.9167 15.0482 19.9437 14.5529 19.0275C14.2697 18.5037 13.8624 18.101 13.3422 17.8038C12.6822 17.4266 11.9652 17.2037 11.2049 17.1832C9.79939 17.1454 8.39282 17.1468 6.96367 17.1318Z" fill="#0F172A"/>
<path d="M28.9874 26.416V34.6548H23.8051V13.0195H28.9874V26.416Z" fill="#0F172A"/>
</svg>
