<svg width="89" height="21" viewBox="0 0 89 21" fill="none" xmlns="http://www.w3.org/2000/svg">
<path d="M77.718 15.8086L81.4612 18.0048C82.1467 18.4073 82.9855 17.8123 82.8051 17.0598L81.8129 12.9298L85.1231 10.1473C85.7274 9.63981 85.4027 8.67731 84.609 8.61606L80.2525 8.25731L78.5478 4.3548C78.2412 3.64605 77.1949 3.64605 76.8882 4.3548L75.1835 8.24856L70.8271 8.60731C70.0333 8.66855 69.7086 9.63105 70.3129 10.1386L73.6231 12.9211L72.631 17.0511C72.4506 17.8036 73.2894 18.3986 73.9749 17.9961L77.718 15.8086Z" fill="#03BA7E"/>
<mask id="mask0_5150_2659" style="mask-type:alpha" maskUnits="userSpaceOnUse" x="70" y="3" width="16" height="16">
<path d="M77.718 15.8086L81.4612 18.0048C82.1467 18.4073 82.9855 17.8123 82.8051 17.0598L81.8129 12.9298L85.1231 10.1473C85.7274 9.63981 85.4027 8.67731 84.609 8.61606L80.2525 8.25731L78.5478 4.3548C78.2412 3.64605 77.1949 3.64605 76.8882 4.3548L75.1835 8.24856L70.8271 8.60731C70.0333 8.66855 69.7086 9.63105 70.3129 10.1386L73.6231 12.9211L72.631 17.0511C72.4506 17.8036 73.2894 18.3986 73.9749 17.9961L77.718 15.8086Z" fill="#DA552F"/>
</mask>
<g mask="url(#mask0_5150_2659)">
<rect x="78" y="3" width="9" height="17" fill="#E7E7E7"/>
</g>
<path d="M60.5882 15.1113L64.3313 17.3075C65.0168 17.71 65.8556 17.115 65.6752 16.3625L64.6831 12.2325L67.9933 9.45004C68.5976 8.94254 68.2729 7.98004 67.4791 7.91879L63.1227 7.56004L61.418 3.65754C61.1113 2.94879 60.065 2.94879 59.7584 3.65754L58.0536 7.55129L53.6972 7.91004C52.9035 7.97129 52.5787 8.93379 53.1831 9.44129L56.4933 12.2238L55.5011 16.3538C55.3207 17.1063 56.1595 17.7013 56.845 17.2988L60.5882 15.1113Z" fill="#03BA7E"/>
<path d="M43.0003 15.1113L46.7434 17.3075C47.4289 17.71 48.2677 17.115 48.0873 16.3625L47.0952 12.2325L50.4054 9.45004C51.0097 8.94254 50.685 7.98004 49.8912 7.91879L45.5348 7.56004L43.8301 3.65754C43.5234 2.94879 42.4771 2.94879 42.1705 3.65754L40.4658 7.55129L36.1093 7.91004C35.3156 7.97129 34.9909 8.93379 35.5952 9.44129L38.9054 12.2238L37.9132 16.3538C37.7328 17.1063 38.5716 17.7013 39.2571 17.2988L43.0003 15.1113Z" fill="#03BA7E"/>
<path d="M25.4114 15.1113L29.1545 17.3075C29.84 17.71 30.6788 17.115 30.4985 16.3625L29.5063 12.2325L32.8165 9.45004C33.4208 8.94254 33.0961 7.98004 32.3024 7.91879L27.9459 7.56004L26.2412 3.65754C25.9345 2.94879 24.8883 2.94879 24.5816 3.65754L22.8769 7.55129L18.5204 7.91004C17.7267 7.97129 17.402 8.93379 18.0063 9.44129L21.3165 12.2238L20.3243 16.3538C20.1439 17.1063 20.9828 17.7013 21.6683 17.2988L25.4114 15.1113Z" fill="#03BA7E"/>
<path d="M7.82351 15.1113L11.5666 17.3075C12.2521 17.71 13.091 17.115 12.9106 16.3625L11.9184 12.2325L15.2286 9.45004C15.8329 8.94254 15.5082 7.98004 14.7145 7.91879L10.358 7.56004L8.65331 3.65754C8.34665 2.94879 7.30037 2.94879 6.9937 3.65754L5.289 7.55129L0.932528 7.91004C0.138803 7.97129 -0.185903 8.93379 0.418411 9.44129L3.72861 12.2238L2.73645 16.3538C2.55606 17.1063 3.39488 17.7013 4.08037 17.2988L7.82351 15.1113Z" fill="#03BA7E"/>
</svg>
