<svg width="122" height="49" viewBox="0 0 122 49" fill="none" xmlns="http://www.w3.org/2000/svg">
<g clip-path="url(#clip0_5137_754)">
<mask id="mask0_5137_754" style="mask-type:luminance" maskUnits="userSpaceOnUse" x="-5" y="4" width="127" height="36">
<path d="M122 4H-5V40H122V4Z" fill="white"/>
</mask>
<g mask="url(#mask0_5137_754)">
<mask id="mask1_5137_754" style="mask-type:luminance" maskUnits="userSpaceOnUse" x="3" y="9" width="128" height="37">
<path d="M130.133 9.95044H3.13306V45.9504H130.133V9.95044Z" fill="white"/>
</mask>
<g mask="url(#mask1_5137_754)">
<path fill-rule="evenodd" clip-rule="evenodd" d="M13.5581 9.95044H3.13306V33.9949H13.5581C17.4926 33.9968 20.6408 32.8966 23.0027 30.6942C25.3646 28.4918 26.5456 25.5728 26.5456 21.937C26.5414 18.2954 25.3604 15.3872 23.0027 13.2125C20.645 11.0378 17.4968 9.95044 13.5581 9.95044ZM18.5576 16.3501C19.7083 17.6291 20.2837 19.4935 20.2837 21.943H20.2868C20.2973 24.3905 19.7219 26.2598 18.5607 27.5507C17.3997 28.8418 15.729 29.4872 13.5487 29.4872H9.13809V14.4313H13.5456C15.7363 14.4313 17.407 15.0709 18.5576 16.3501Z" fill="#0F172A"/>
<path fill-rule="evenodd" clip-rule="evenodd" d="M39.9027 34.0008H45.5412V33.9919C45.4254 33.2505 45.3408 32.5032 45.2938 31.75C45.2458 31.0066 45.2217 30.117 45.2217 29.081V23.491C45.2217 21.1344 44.5221 19.3551 43.1229 18.1531C41.7237 16.9511 39.6489 16.3501 36.8986 16.3501C34.4051 16.3501 32.4003 16.8947 30.8842 17.9841C29.368 19.0734 28.5139 20.5947 28.3217 22.548H34.0292C34.0376 22.2449 34.1111 21.9467 34.2452 21.6713C34.3793 21.396 34.5712 21.1494 34.8092 20.9466C35.3811 20.5536 36.0726 20.3477 36.7791 20.36C37.4856 20.3723 38.1687 20.6022 38.7249 21.0148C38.97 21.2583 39.1596 21.5469 39.282 21.8627C39.4043 22.1784 39.4567 22.5147 39.436 22.8505V23.5592L34.3111 24.0308C32.0432 24.2532 30.3391 24.8018 29.2239 25.6796C28.1087 26.5574 27.5512 27.7673 27.5512 29.3183C27.5211 30.018 27.6595 30.7151 27.9557 31.3567C28.252 31.9984 28.6985 32.5679 29.2615 33.0222C30.3996 33.9435 31.9409 34.4041 33.8851 34.4041C35.148 34.4388 36.4004 34.178 37.5314 33.6449C38.5026 33.1796 39.2764 32.4135 39.7241 31.4742C39.7241 31.8093 39.7335 32.1651 39.7586 32.5358C39.7837 32.9065 39.8307 33.3929 39.9027 34.0008ZM33.5473 29.6987C33.4421 29.4624 33.3948 29.2066 33.409 28.9505H33.4059C33.3902 28.6973 33.439 28.4443 33.548 28.2126C33.657 27.981 33.8231 27.7774 34.0324 27.619C34.4479 27.3165 35.1538 27.1089 36.1499 26.9963L39.4234 26.6256V27.4678C39.4441 27.9199 39.3609 28.3709 39.1797 28.7896C38.9986 29.2084 38.7237 29.585 38.3741 29.8935C37.6353 30.5132 36.6726 30.8393 35.6863 30.804C35.0855 30.8378 34.4922 30.6639 34.0167 30.3147C33.8131 30.1455 33.6526 29.9349 33.5473 29.6987Z" fill="#0F172A"/>
<path fill-rule="evenodd" clip-rule="evenodd" d="M59.2395 34.4041C58.0815 34.4183 56.9399 34.141 55.9318 33.6005C54.9873 33.1085 54.2226 32.3567 53.7391 31.4446V40.0001H47.7872V16.7534H53.6576V19.3482C54.1516 18.4294 54.9267 17.6729 55.8817 17.1775C56.9036 16.6216 58.0646 16.3358 59.2426 16.3501C61.6381 16.3501 63.5656 17.1814 65.0258 18.8441C66.4854 20.5067 67.2161 22.6814 67.2186 25.3682C67.2186 28.0629 66.4873 30.2376 65.0258 31.8923C63.5638 33.5471 61.6362 34.3774 59.2426 34.3834L59.2395 34.4041ZM57.379 20.3594C56.8461 20.3368 56.3153 20.4367 55.832 20.6505C55.3487 20.8643 54.9273 21.1856 54.6036 21.5872C53.9479 22.4096 53.62 23.5474 53.62 25.0005V25.7419C53.62 27.1811 53.952 28.309 54.6161 29.1255C54.9617 29.5161 55.3948 29.8291 55.8838 30.0418C56.3729 30.2545 56.9058 30.3616 57.444 30.3554C57.982 30.3491 58.5119 30.2297 58.9955 30.0057C59.4791 29.7817 59.9039 29.4588 60.2392 29.0603C60.903 28.1944 61.2352 26.9647 61.2352 25.3712C61.2352 23.7777 60.8968 22.5431 60.2205 21.6673C59.9033 21.2432 59.4791 20.9009 58.9868 20.6714C58.4944 20.442 57.9495 20.3327 57.401 20.3536L57.379 20.3594Z" fill="#0F172A"/>
<path fill-rule="evenodd" clip-rule="evenodd" d="M76.9232 33.6004C77.9355 34.1435 79.0828 34.4209 80.2465 34.4041C82.6401 34.3843 84.5676 33.547 86.0291 31.8923C87.4911 30.2376 88.2218 28.0629 88.2218 25.3681C88.22 22.6814 87.4892 20.5067 86.0291 18.844C84.5695 17.1814 82.642 16.35 80.2465 16.35C79.0641 16.3337 77.8985 16.6195 76.8732 17.1774C75.9178 17.6728 75.1427 18.4294 74.6485 19.3482V16.7533H68.7783V40H74.7304V31.4445C75.214 32.3567 75.9785 33.1085 76.9232 33.6004ZM76.8494 20.6497C77.3336 20.436 77.8648 20.3363 78.3984 20.3594L78.4047 20.3535C78.9527 20.3327 79.4982 20.442 79.9906 20.6714C80.483 20.9008 80.9071 21.2431 81.2237 21.6672C81.9006 22.543 82.2391 23.7777 82.2391 25.3711C82.2391 26.9646 81.9069 28.1943 81.2425 29.0602C80.9078 29.4613 80.4817 29.7866 79.9969 30.0122C79.512 30.2379 78.9802 30.3582 78.4397 30.3645C77.8998 30.3707 77.3649 30.2627 76.8744 30.0484C76.3833 29.834 75.9498 29.5187 75.6044 29.1255C74.94 28.309 74.6078 27.1811 74.6078 25.7418V25.0005C74.6078 23.5473 74.945 22.4096 75.6201 21.5871C75.9435 21.1852 76.3658 20.8636 76.8494 20.6497Z" fill="#0F172A"/>
<path fill-rule="evenodd" clip-rule="evenodd" d="M102.227 28.3752H107.697C107.354 30.1485 106.303 31.7286 104.762 32.7879C103.208 33.8634 101.258 34.4021 98.9104 34.4041C96.0614 34.4041 93.7422 33.5787 91.953 31.9279C90.1631 30.2771 89.2684 28.0935 89.2684 25.3771C89.2684 22.6607 90.1581 20.4771 91.9373 18.8262C93.7166 17.1755 96.0138 16.3501 98.8285 16.3501C101.556 16.3501 103.727 17.1587 105.341 18.7758C106.955 20.3931 107.762 22.5035 107.76 25.1072V26.6226H94.9978C95.1605 27.88 95.5784 28.829 96.2509 29.4695C96.6019 29.7948 97.0198 30.0481 97.479 30.2135C97.9382 30.3788 98.4287 30.4526 98.9198 30.4303C99.658 30.4532 100.388 30.2718 101.018 29.9084C101.597 29.5461 102.025 29.0039 102.227 28.3752ZM98.8472 20.2913C99.3058 20.2713 99.7544 20.3428 100.182 20.5015C100.611 20.6609 100.999 20.9046 101.322 21.2165C101.96 21.8708 102.298 22.7378 102.262 23.6274H95.1136C95.3263 22.5263 95.7523 21.6949 96.3917 21.1334C97.0617 20.5634 97.9476 20.2617 98.8472 20.2913Z" fill="#0F172A"/>
<path d="M121.468 16.5192C121.251 16.4865 120.998 16.4865 120.684 16.4865H120.694C119.491 16.4621 118.315 16.8168 117.348 17.4948C116.346 18.2433 115.613 19.2666 115.25 20.4248V16.7534H109.379V34.0008H115.312V26.4566C115.312 24.9501 115.738 23.7847 116.59 22.9514C117.452 22.121 118.615 21.7059 120.077 21.7059C120.459 21.7059 120.803 21.7148 121.11 21.7385C121.418 21.7622 121.715 21.7948 122 21.8423V16.6526C121.832 16.5808 121.652 16.5357 121.468 16.5192Z" fill="#0F172A"/>
</g>
</g>
</g>
<defs>
<clipPath id="clip0_5137_754">
<rect width="122" height="36" fill="white" transform="translate(0 4)"/>
</clipPath>
</defs>
</svg>
