<svg width="130" height="49" viewBox="0 0 130 49" fill="none" xmlns="http://www.w3.org/2000/svg">
<g clip-path="url(#clip0_5137_765)">
<path d="M22.24 16.2162C20.4144 14.6719 18.1592 13.6628 15.7457 13.3102C14.3052 13.1225 12.8511 13.0463 11.3976 13.0821H3V35.6504H12.9194C16.7021 35.6504 19.809 34.6003 22.24 32.5C24.6711 30.3998 25.8858 27.6812 25.8858 24.3426C25.8858 21.0146 24.6711 18.3058 22.24 16.2162ZM14.3591 31.366H11.0965L7.52772 33.6968V17.3657H10.733C13.0734 17.3657 15.472 17.1172 17.6054 18.2211C19.0322 18.9467 20.1675 20.1008 20.8349 21.504C21.5023 22.9072 21.6645 24.4811 21.2962 25.9811C20.928 27.4812 20.0499 28.8234 18.7984 29.7993C17.5469 30.7753 15.9921 31.3303 14.3753 31.3782L14.3582 31.366H14.3591Z" fill="#0F172A"/>
<path d="M37.6701 17.3895C36.395 17.3635 35.1284 17.5921 33.9517 18.0604C32.775 18.5288 31.7143 19.2266 30.8378 20.1089C29.942 20.9697 29.2365 21.9927 28.7629 23.1176C28.2894 24.2425 28.0574 25.4464 28.0808 26.6582C28.0607 27.8483 28.2996 29.0295 28.7825 30.1274C29.2654 31.2253 29.9818 32.216 30.8866 33.0371C31.7622 33.8855 32.8093 34.5559 33.9646 35.0079C35.12 35.4599 36.3596 35.6841 37.6085 35.6669C39.5172 35.6629 41.3789 35.1029 42.9437 34.062C44.4738 33.1495 45.6484 31.7853 46.2884 30.1776H41.4955C40.5605 31.1511 39.2115 31.6383 37.4494 31.6383C36.3849 31.6515 35.3441 31.3382 34.4811 30.7446C33.6231 30.1665 32.9914 29.3331 32.6855 28.3755H46.7127C46.7127 28.3755 46.8187 27.6374 46.8307 27.5747C46.8957 27.1893 46.9334 26.8007 46.9411 26.4097C46.9541 25.2339 46.7197 24.0675 46.2518 22.9793C45.7838 21.8912 45.0918 20.9033 44.2166 20.0739C43.383 19.2155 42.3697 18.5331 41.2421 18.0707C40.1145 17.6084 38.8977 17.3763 37.6701 17.3895ZM32.6205 24.6923C32.9563 23.7082 33.6469 22.869 34.57 22.3232C35.4872 21.7387 36.5664 21.4275 37.6701 21.4295C38.7646 21.4188 39.8359 21.731 40.7367 22.3232C41.6198 22.892 42.2775 23.7261 42.605 24.6923H32.6205ZM49.7468 35.6588H54.0872V13L49.7468 15.8082V35.6588ZM94.084 20.1049L93.6152 19.6038C92.9258 18.9065 92.0926 18.3523 91.1678 17.9761C90.2676 17.5999 89.2956 17.4041 88.3125 17.4009C87.3097 17.3894 86.3153 17.5761 85.3921 17.9492C84.5129 18.3078 83.7467 18.878 83.1688 19.6038V17.972H79.0372V35.6588H83.5238V27.1128C83.5021 26.2519 83.5636 25.3909 83.7078 24.5408C83.8086 24.012 84.0073 23.5044 84.2946 23.0418C84.6115 22.5866 85.0532 22.2226 85.5717 21.9892C86.1238 21.7062 86.7394 21.5542 87.3664 21.546C87.9566 21.5436 88.5383 21.6764 89.0627 21.9346C89.599 22.201 90.0464 22.6051 90.3561 23.0996C90.6897 23.6072 90.9018 24.1791 90.9762 24.7738C91.0669 25.6276 91.1063 26.4846 91.0943 27.3417V35.6588H95.5809V26.4912C95.5976 25.2734 95.513 24.0562 95.3277 22.8511C95.1474 21.8551 94.7211 20.9141 94.084 20.1057V20.1049ZM104.077 21.0914H106.688V17.4245H104.077V13H99.7374V17.4245H97.616V21.0914H99.7374V35.6588H99.7408L104.078 32.8538L104.077 21.0914ZM123.403 20.0698C122.571 19.2145 121.561 18.5343 120.437 18.0727C119.313 17.6111 118.1 17.3784 116.876 17.3895C115.601 17.3636 114.334 17.5922 113.158 18.0606C111.981 18.5289 110.921 19.2267 110.044 20.1089C109.149 20.9697 108.443 21.9927 107.969 23.1176C107.496 24.2425 107.264 25.4464 107.287 26.6582C107.267 27.8483 107.506 29.0295 107.989 30.1274C108.472 31.2253 109.188 32.216 110.093 33.0371C110.968 33.8822 112.013 34.5501 113.165 35.0006C114.318 35.4512 115.554 35.675 116.8 35.6588C118.708 35.6546 120.569 35.0946 122.134 34.0539C123.664 33.1414 124.839 31.7772 125.479 30.1694H120.681C119.746 31.1438 118.397 31.6302 116.635 31.6302C115.571 31.6436 114.53 31.3306 113.667 30.7373C112.809 30.159 112.177 29.3252 111.872 28.3674H125.899C125.92 28.1604 125.964 27.8614 126.03 27.4704C126.09 27.1217 126.124 26.7698 126.127 26.417C126.142 25.2394 125.908 24.071 125.44 22.9809C124.972 21.8909 124.279 20.9004 123.403 20.0698ZM111.806 24.6923C112.142 23.7082 112.833 22.869 113.756 22.3232C114.669 21.7347 115.745 21.4183 116.847 21.414C117.947 21.406 119.022 21.7238 119.924 22.3232C120.808 22.8966 121.464 23.7364 121.788 24.7078L111.806 24.6923ZM71.8953 17.9492V20.381C71.8953 20.2719 71.6053 19.9924 71.5317 19.9224C71.4033 19.7713 71.2675 19.6261 71.1246 19.4873C70.8563 19.2168 70.5657 18.9673 70.2555 18.7411C69.655 18.3007 68.9805 17.9606 68.2606 17.7349C66.4236 17.2192 64.4644 17.2545 62.6491 17.836C61.9452 18.0546 61.2746 18.3603 60.6543 18.7451C59.4565 19.5043 58.4754 20.5347 57.7989 21.744C55.7963 25.2756 56.2933 29.9951 59.1778 32.9703C60.414 34.2651 62.0524 35.1498 63.8538 35.4951C65.6553 35.8404 67.5254 35.6283 69.1913 34.8897C70.2622 34.4255 71.1921 33.7105 71.8944 32.8115V35.671H75.8764V17.9484L71.8953 17.9492ZM70.2999 30.1694C69.8058 30.6526 69.2106 31.0316 68.553 31.282C67.8954 31.5323 67.1899 31.6484 66.4822 31.6228C65.7842 31.6348 65.0906 31.5154 64.4412 31.2714C63.7918 31.0274 63.1993 30.6638 62.6979 30.2012C62.1905 29.7533 61.7885 29.2081 61.5185 28.6014C61.2486 27.9948 61.1167 27.3405 61.1316 26.6818C61.1061 25.9902 61.2257 25.3006 61.4833 24.6535C61.7409 24.0064 62.1314 23.4147 62.632 22.9131C63.1396 22.4188 63.7504 22.0314 64.4249 21.7759C65.0994 21.5203 65.8227 21.4024 66.5481 21.4295C67.2441 21.4068 67.9374 21.5229 68.5835 21.7704C69.2296 22.0179 69.8143 22.3913 70.2999 22.8666C70.783 23.3492 71.1603 23.9187 71.4097 24.5417C71.659 25.1647 71.7756 25.8288 71.7524 26.4952C71.7783 27.1688 71.6632 27.8405 71.4139 28.4713C71.1645 29.1021 70.7858 29.6794 70.2999 30.1694Z" fill="#0F172A"/>
</g>
<defs>
<clipPath id="clip0_5137_765">
<rect width="123.18" height="22.8111" fill="white" transform="translate(3 13)"/>
</clipPath>
</defs>
</svg>
