<svg width="31" height="32" viewBox="0 0 31 32" fill="none" xmlns="http://www.w3.org/2000/svg">
<path d="M21.8446 22.799C23.017 24.8418 24.1763 26.8613 25.3347 28.8786C20.205 32.8218 12.2242 33.2984 6.31608 28.7574C-0.482832 23.5276 -1.60029 14.6041 2.03974 8.18054C6.2263 0.79209 14.0607 -0.841911 19.105 0.35624C18.9686 0.653808 15.9474 6.94695 15.9474 6.94695C15.9474 6.94695 15.7086 6.9627 15.5735 6.96533C14.0825 7.02878 12.972 7.37711 11.7818 7.995C10.4759 8.67918 9.35684 9.67411 8.52235 10.8928C7.68785 12.1115 7.16334 13.5169 6.99467 14.9861C6.81868 16.4761 7.02387 17.9866 7.59088 19.3748C8.07029 20.5485 8.74844 21.5908 9.65758 22.4708C11.0522 23.8221 12.7119 24.6588 14.6356 24.9358C16.4574 25.1984 18.2094 24.9385 19.8512 24.1101C20.467 23.7998 20.9908 23.4572 21.6032 22.9872C21.6812 22.9364 21.7505 22.8721 21.8446 22.799Z" fill="#EF492D"/>
<path d="M21.8561 4.88426C21.5585 4.59019 21.2826 4.31888 21.008 4.04581C20.8441 3.88303 20.6864 3.71367 20.5186 3.55483C20.4584 3.4975 20.3878 3.41917 20.3878 3.41917C20.3878 3.41917 20.4449 3.29752 20.4693 3.24763C20.7905 2.60042 21.2939 2.12737 21.891 1.75103C22.5512 1.33172 23.3205 1.11837 24.1015 1.13796C25.1009 1.15765 26.03 1.40752 26.8141 2.08055C27.3929 2.57722 27.6897 3.20737 27.742 3.95961C27.8291 5.22865 27.3061 6.20056 26.2676 6.87884C25.6574 7.27793 24.9993 7.58644 24.3395 7.95184C23.9756 8.15357 23.6644 8.3308 23.3087 8.69576C22.9958 9.06203 22.9806 9.4073 22.9806 9.4073L27.708 9.40117V11.5152H20.4109C20.4109 11.5152 20.4109 11.3708 20.4109 11.3109C20.383 10.272 20.5037 9.2944 20.9775 8.35093C21.4133 7.48535 22.0906 6.85171 22.9043 6.36378C23.531 5.98789 24.1909 5.668 24.8189 5.29385C25.2063 5.06324 25.48 4.72497 25.4779 4.23442C25.4779 3.81345 25.1728 3.4393 24.7369 3.32246C23.7093 3.04414 22.6633 3.48831 22.1194 4.43265C22.04 4.5705 21.959 4.70747 21.8561 4.88426Z" fill="#EF492D"/>
<path d="M31.0003 20.552L27.0164 13.644H19.1327L15.123 20.6233H23.0647L26.9837 27.4985L31.0003 20.552Z" fill="#EF492D"/>
</svg>
