<svg width="191" height="49" viewBox="0 0 191 49" fill="none" xmlns="http://www.w3.org/2000/svg">
<path d="M24.8731 12.5807V33.9737H20.4985V20.0988L14.2082 30.0313H13.6968L7.4065 20.1294V33.9737H3V12.5807H7.53398L13.9525 22.6966L20.3392 12.5807H24.8731ZM31.3014 29.5467C32.6836 31.1656 35.0053 31.0653 36.9889 30.22C38.4481 29.5985 39.3418 28.5149 39.6072 27.4318L43.4199 27.8141C42.9322 30.2969 41.2506 32.3181 38.4501 33.5114C33.5496 35.5997 28.9637 33.7066 27.0286 29.5467C25.0935 25.3867 26.721 20.8459 31.3014 18.8943C35.6185 17.0546 40.201 19.0159 42.1104 23.1201C42.3571 23.6505 42.5192 24.15 42.6529 24.662L31.3014 29.5467ZM30.2441 26.493L38.076 23.1786C36.6744 21.3673 34.7434 21.3609 33.1471 21.9002C30.9078 22.657 29.8498 24.5197 30.2441 26.493ZM57.3828 12.5807H61.5025V33.9737H57.3828V32.1706C56.2334 33.5764 54.5415 34.4016 52.2101 34.4016C47.931 34.4016 44.419 30.887 44.419 26.3333C44.419 21.7797 47.931 18.2651 52.2101 18.2651C54.5415 18.2651 56.2334 19.0903 57.3828 20.4961V12.5807ZM52.9763 30.6425C55.499 30.6425 57.3828 28.9005 57.3828 26.3333C57.3828 23.7662 55.499 22.0242 52.9763 22.0242C50.4218 22.0242 48.538 23.7662 48.538 26.3333C48.538 28.9005 50.4218 30.6425 52.9763 30.6425ZM66.0926 16.8593C64.7194 16.8593 63.5699 15.7591 63.5699 14.4449C63.5699 13.1308 64.7194 12 66.0926 12C67.4977 12 68.6471 13.1308 68.6471 14.4449C68.6471 15.7591 67.4977 16.8593 66.0926 16.8593ZM64.0487 33.9737V18.6929H68.1684V33.9737H64.0487ZM83.0819 18.6929H87.2008V33.9737H83.0819V32.1706C81.9324 33.5459 80.2079 34.4016 77.8772 34.4016C73.6301 34.4016 70.1173 30.887 70.1173 26.3333C70.1173 21.7797 73.6301 18.2651 77.8772 18.2651C80.2079 18.2651 81.9324 19.1209 83.0819 20.4961V18.6929ZM78.6435 30.6425C81.198 30.6425 83.0819 28.9005 83.0819 26.3333C83.0819 23.7662 81.198 22.0242 78.6435 22.0242C76.1208 22.0242 74.237 23.7662 74.237 26.3333C74.237 28.9005 76.1208 30.6425 78.6435 30.6425ZM97.5485 34.4016C92.6951 34.4016 89.1186 30.887 89.1186 26.3333C89.1186 21.7797 92.6951 18.2651 97.5485 18.2651C100.678 18.2651 103.392 19.8543 104.701 22.2076L101.157 24.1941C100.518 22.9411 99.1455 22.1464 97.5166 22.1464C95.0577 22.1464 93.2376 23.8884 93.2376 26.3333C93.2376 28.7477 95.0577 30.4897 97.5166 30.4897C99.1774 30.4897 100.551 29.7257 101.189 28.4727L104.765 30.4286C103.392 32.8124 100.678 34.4016 97.5485 34.4016ZM115.758 18.2651C119.142 18.2651 121.793 20.5267 121.793 24.5913V33.9737H117.674V25.0803C117.674 23.0021 116.364 21.9325 114.512 21.9325C112.501 21.9325 111 23.0633 111 25.7222V33.9737H106.88V12.5807H111V20.4044C111.958 19.0291 113.618 18.2651 115.758 18.2651ZM136.218 18.6929H140.337V33.9737H136.218V32.1706C135.069 33.5459 133.344 34.4016 131.013 34.4016C126.766 34.4016 123.254 30.887 123.254 26.3333C123.254 21.7797 126.766 18.2651 131.013 18.2651C133.344 18.2651 135.069 19.1209 136.218 20.4961V18.6929ZM131.779 30.6425C134.334 30.6425 136.218 28.9005 136.218 26.3333C136.218 23.7662 134.334 22.0242 131.779 22.0242C129.257 22.0242 127.373 23.7662 127.373 26.3333C127.373 28.9005 129.257 30.6425 131.779 30.6425ZM146.971 21.3213C147.801 19.2431 149.813 18.3874 151.825 18.3874V22.7882C149.685 22.5437 146.971 23.4606 146.971 26.6695V33.9737H142.852V18.6929H146.971V21.3213ZM165.554 18.6929H169.577V33.2403C169.577 38.2524 165.458 40.5139 161.243 40.5139C157.826 40.5139 155.08 39.2609 153.675 36.7854L157.188 34.86C157.858 36.0519 158.912 36.9993 161.371 36.9993C163.957 36.9993 165.554 35.6546 165.554 33.2403V31.5899C164.436 33.0264 162.712 33.9126 160.445 33.9126C155.91 33.9126 152.494 30.398 152.494 26.0889C152.494 21.8102 155.91 18.2651 160.445 18.2651C162.712 18.2651 164.436 19.1514 165.554 20.5878V18.6929ZM160.85 30.2758C163.437 30.2758 165.321 28.5338 165.321 26.0889C165.321 23.6745 163.437 21.9325 160.85 21.9325C158.264 21.9325 156.38 23.6745 156.38 26.0889C156.38 28.5338 158.264 30.2758 160.85 30.2758ZM175.573 27.9531C176.147 29.9702 177.903 30.8259 180.075 30.8259C181.672 30.8259 182.949 30.1841 183.651 29.2978L186.972 31.1315C185.471 33.2097 183.076 34.4016 180.011 34.4016C174.646 34.4016 171.262 30.887 171.262 26.3333C171.262 21.7797 174.678 18.2651 179.692 18.2651C184.417 18.2651 187.77 21.8408 187.77 26.3333C187.77 26.914 187.706 27.4336 187.611 27.9531H175.573ZM175.509 24.897H183.651C183.141 22.6966 181.416 21.8102 179.692 21.8102C177.488 21.8102 175.988 22.9411 175.509 24.897Z" fill="#0F172A"/>
</svg>
