<svg width="92" height="21" viewBox="0 0 92 21" fill="none" xmlns="http://www.w3.org/2000/svg">
<path d="M80.718 15.8086L84.4612 18.0048C85.1467 18.4073 85.9855 17.8123 85.8051 17.0598L84.8129 12.9298L88.1231 10.1473C88.7274 9.63981 88.4027 8.67731 87.609 8.61606L83.2525 8.25731L81.5478 4.3548C81.2412 3.64605 80.1949 3.64605 79.8882 4.3548L78.1835 8.24856L73.8271 8.60731C73.0333 8.66855 72.7086 9.63105 73.3129 10.1386L76.6231 12.9211L75.631 17.0511C75.4506 17.8036 76.2894 18.3986 76.9749 17.9961L80.718 15.8086Z" fill="#DA552F"/>
<mask id="mask0_5141_2404" style="mask-type:alpha" maskUnits="userSpaceOnUse" x="73" y="3" width="16" height="16">
<path d="M80.718 15.8086L84.4612 18.0048C85.1467 18.4073 85.9855 17.8123 85.8051 17.0598L84.8129 12.9298L88.1231 10.1473C88.7274 9.63981 88.4027 8.67731 87.609 8.61606L83.2525 8.25731L81.5478 4.3548C81.2412 3.64605 80.1949 3.64605 79.8882 4.3548L78.1835 8.24856L73.8271 8.60731C73.0333 8.66855 72.7086 9.63105 73.3129 10.1386L76.6231 12.9211L75.631 17.0511C75.4506 17.8036 76.2894 18.3986 76.9749 17.9961L80.718 15.8086Z" fill="#DA552F"/>
</mask>
<g mask="url(#mask0_5141_2404)">
<rect x="84.4271" y="7.21631" width="9" height="14" fill="#E7E7E7"/>
</g>
<path d="M63.5882 15.1113L67.3314 17.3075C68.0168 17.71 68.8557 17.115 68.6753 16.3625L67.6831 12.2325L70.9933 9.45004C71.5976 8.94254 71.2729 7.98004 70.4792 7.91879L66.1227 7.56004L64.418 3.65754C64.1114 2.94879 63.0651 2.94879 62.7584 3.65754L61.0537 7.55129L56.6972 7.91004C55.9035 7.97129 55.5788 8.93379 56.1831 9.44129L59.4933 12.2238L58.5012 16.3538C58.3208 17.1063 59.1596 17.7013 59.8451 17.2988L63.5882 15.1113Z" fill="#DA552F"/>
<path d="M46.0003 15.1113L49.7434 17.3075C50.4289 17.71 51.2677 17.115 51.0873 16.3625L50.0952 12.2325L53.4054 9.45004C54.0097 8.94254 53.685 7.98004 52.8912 7.91879L48.5348 7.56004L46.8301 3.65754C46.5234 2.94879 45.4771 2.94879 45.1705 3.65754L43.4658 7.55129L39.1093 7.91004C38.3156 7.97129 37.9909 8.93379 38.5952 9.44129L41.9054 12.2238L40.9132 16.3538C40.7328 17.1063 41.5716 17.7013 42.2571 17.2988L46.0003 15.1113Z" fill="#DA552F"/>
<path d="M28.4114 15.1113L32.1545 17.3075C32.84 17.71 33.6788 17.115 33.4985 16.3625L32.5063 12.2325L35.8165 9.45004C36.4208 8.94254 36.0961 7.98004 35.3024 7.91879L30.9459 7.56004L29.2412 3.65754C28.9345 2.94879 27.8883 2.94879 27.5816 3.65754L25.8769 7.55129L21.5204 7.91004C20.7267 7.97129 20.402 8.93379 21.0063 9.44129L24.3165 12.2238L23.3243 16.3538C23.1439 17.1063 23.9828 17.7013 24.6683 17.2988L28.4114 15.1113Z" fill="#DA552F"/>
<path d="M10.8235 15.1113L14.5666 17.3075C15.2521 17.71 16.091 17.115 15.9106 16.3625L14.9184 12.2325L18.2286 9.45004C18.8329 8.94254 18.5082 7.98004 17.7145 7.91879L13.358 7.56004L11.6533 3.65754C11.3466 2.94879 10.3004 2.94879 9.9937 3.65754L8.289 7.55129L3.93253 7.91004C3.1388 7.97129 2.8141 8.93379 3.41841 9.44129L6.72861 12.2238L5.73645 16.3538C5.55606 17.1063 6.39488 17.7013 7.08037 17.2988L10.8235 15.1113Z" fill="#DA552F"/>
</svg>
