<svg width="149" height="17" viewBox="0 0 149 17" fill="none" xmlns="http://www.w3.org/2000/svg">
<path d="M9.67253 5.33519C9.67253 3.94457 8.60738 3.1019 7.22338 3.1019H3.51345V7.54256H7.22424C8.60825 7.54256 9.67253 6.69989 9.67253 5.33519ZM0 16.8474V0H7.71717C11.3056 0 13.2584 2.43208 13.2584 5.33519C13.2584 8.21324 11.2806 10.6445 7.71717 10.6445H3.51345V16.8474H0ZM15.3973 16.8474V4.56512H18.5367V6.17787C19.4028 5.13554 20.8635 4.26781 22.3483 4.26781V7.34378C22.1243 7.29451 21.8528 7.27031 21.4823 7.27031C20.443 7.27031 19.0564 7.86494 18.5367 8.63587V16.8474H15.3973ZM32.9171 10.5451C32.9171 8.68427 31.8261 7.07153 29.8475 7.07153C27.8921 7.07153 26.8054 8.68427 26.8054 10.5459C26.8054 12.4309 27.8921 14.0437 29.8475 14.0437C31.8261 14.0437 32.9171 12.4309 32.9171 10.5451ZM23.5385 10.5451C23.5385 7.14672 25.9135 4.26781 29.8475 4.26781C33.8065 4.26781 36.1815 7.14586 36.1815 10.5451C36.1815 13.9443 33.8065 16.8474 29.8475 16.8474C25.9135 16.8474 23.5385 13.9443 23.5385 10.5451ZM46.7537 12.679V8.43622C46.2341 7.64109 45.0965 7.07153 44.0564 7.07153C42.2518 7.07153 41.0143 8.48549 41.0143 10.5459C41.0143 12.6288 42.2518 14.0437 44.0564 14.0437C45.0965 14.0437 46.2341 13.4741 46.7537 12.679ZM46.7537 16.8474V15.0117C45.8127 16.2018 44.5278 16.8474 43.0671 16.8474C40.0741 16.8474 37.7732 14.5657 37.7732 10.5451C37.7732 6.65063 40.025 4.26781 43.0671 4.26781C44.4769 4.26781 45.8127 4.86416 46.7537 6.10354V0H49.9199V16.8474H46.7537ZM61.1109 16.8474V15.0359C60.2956 15.9295 58.8608 16.8474 56.9054 16.8474C54.2839 16.8474 53.0473 15.4084 53.0473 13.0757V4.56512H56.1876V11.8354C56.1876 13.4983 57.0536 14.0437 58.3894 14.0437C59.601 14.0437 60.5671 13.3738 61.1109 12.6781V4.56512H64.2529V16.8474H61.1109ZM66.6124 10.5451C66.6124 6.87361 69.2839 4.26781 72.9464 4.26781C75.3956 4.26781 76.8796 5.33519 77.6715 6.42678L75.6171 8.36103C75.0492 7.5175 74.1831 7.07153 73.0947 7.07153C71.1893 7.07153 69.8544 8.46129 69.8544 10.5459C69.8544 12.6288 71.1893 14.0437 73.0947 14.0437C74.1831 14.0437 75.0492 13.5476 75.6171 12.7282L77.6715 14.6642C76.8796 15.7558 75.3956 16.8474 72.9464 16.8474C69.2839 16.8474 66.6124 14.2424 66.6124 10.5451ZM80.3732 13.5476V7.31958H78.3946V4.56512H80.3732V1.2895H83.5161V4.56512H85.9385V7.31958H83.5161V12.704C83.5161 13.4732 83.9099 14.0437 84.6036 14.0437C85.0724 14.0437 85.5206 13.8699 85.6912 13.672L86.3608 16.0773C85.8911 16.5008 85.0492 16.8474 83.7375 16.8474C81.5357 16.8474 80.3732 15.7065 80.3732 13.5476ZM106.064 16.8474V9.57707H98.2705V16.8474H94.7596V0H98.2705V6.50024H106.064V0.000863804H109.602V16.8474H106.064ZM120.845 16.8474V15.0359C120.029 15.9295 118.595 16.8474 116.64 16.8474C114.018 16.8474 112.781 15.4084 112.781 13.0757V4.56512H115.921V11.8354C115.921 13.4983 116.787 14.0437 118.124 14.0437C119.336 14.0437 120.302 13.3738 120.845 12.6781V4.56512H123.987V16.8474H120.845ZM135.175 16.8474V9.30569C135.175 7.64282 134.312 7.07239 132.974 7.07239C131.737 7.07239 130.798 7.76727 130.253 8.46215V16.8482H127.112V4.56512H130.253V6.10354C131.02 5.21074 132.504 4.26781 134.434 4.26781C137.081 4.26781 138.343 5.7561 138.343 8.08792V16.8474H135.176H135.175ZM142.086 13.5476V7.31958H140.11V4.56512H142.087V1.2895H145.23V4.56512H147.653V7.31958H145.23V12.704C145.23 13.4732 145.625 14.0437 146.318 14.0437C146.787 14.0437 147.235 13.8699 147.407 13.672L148.074 16.0773C147.605 16.5008 146.762 16.8474 145.452 16.8474C143.25 16.8474 142.086 15.7065 142.086 13.5476Z" fill="#DA552F"/>
</svg>
