<svg width="146" height="49" viewBox="0 0 146 49" fill="none" xmlns="http://www.w3.org/2000/svg">
<path d="M9.54967 34.2256C8.53756 34.2256 7.56419 34.1024 6.62835 33.857C5.72276 33.5999 4.85581 33.2288 4.04965 32.7532C3.27567 32.2718 2.5841 31.676 2 30.9873L4.65619 28.4123C5.25009 29.0946 5.98724 29.6462 6.81842 30.0303C7.65257 30.3743 8.58841 30.5469 9.62473 30.5469C10.5606 30.5469 11.2688 30.4107 11.7494 30.1407C12.2301 29.8706 12.4698 29.4784 12.4698 28.9642C12.4698 28.424 12.2422 28.0072 11.787 27.7125C11.3318 27.4189 10.7373 27.1724 10.0049 26.9774C9.25045 26.7432 8.49164 26.5224 7.72884 26.3152C6.94233 26.0934 6.18004 25.7977 5.4528 25.4322C4.75051 25.0453 4.15235 24.503 3.70703 23.8494C3.25182 23.1884 3.02422 22.3289 3.02422 21.2745C3.02422 20.1473 3.29056 19.1774 3.82083 18.3684C4.37773 17.5582 5.14893 16.9335 6.13561 16.492C7.14651 16.0506 8.34749 15.8298 9.73853 15.8298C11.2059 15.8298 12.4952 16.0881 13.6078 16.6024C14.7448 17.092 15.7268 17.8665 16.4529 18.8463L13.7979 21.4224C13.2664 20.7837 12.6599 20.3058 11.977 19.9864C11.2942 19.6682 10.5097 19.5085 9.62473 19.5085C8.78938 19.5085 8.14531 19.6318 7.6901 19.876C7.23489 20.1226 7.00729 20.4772 7.00729 20.9445C7.00729 21.4342 7.23489 21.8134 7.6901 22.0835C8.14531 22.3535 8.72763 22.5872 9.43587 22.7833C10.1683 22.9794 10.9274 23.2001 11.7119 23.4455C12.5119 23.6627 13.2776 23.9847 13.9879 24.4025C14.713 24.7876 15.326 25.3442 15.77 26.0205C16.2252 26.6827 16.4529 27.554 16.4529 28.633C16.4529 30.3497 15.8342 31.7106 14.5945 32.7168C13.3548 33.7219 11.6732 34.2256 9.54967 34.2256ZM27.5933 34.2256C25.7725 34.2256 24.1296 33.8323 22.6623 33.0479C21.2357 32.2526 20.0464 31.1116 19.2107 29.7368C18.3754 28.3395 17.9589 26.7684 17.9589 25.0283C17.9589 23.2858 18.3754 21.7289 19.2107 20.3551C20.0177 18.9839 21.1816 17.8422 22.5861 17.0439C24.028 16.2337 25.6212 15.8298 27.3657 15.8298C29.0607 15.8298 30.5522 16.2102 31.8428 16.9699C33.1452 17.7174 34.2087 18.8001 34.9154 20.0979C35.6733 21.4212 36.0534 22.9301 36.0534 24.6232C36.0534 24.9168 36.028 25.2232 35.9772 25.5426C35.9461 25.8762 35.8956 26.2079 35.8258 26.536H20.8778V23.2248H33.6624L32.1067 24.5493C32.0558 23.469 31.8403 22.5625 31.4614 21.8263C31.1062 21.1157 30.5377 20.5259 29.8306 20.1343C29.1478 19.7422 28.3004 19.5449 27.2883 19.5449C26.2265 19.5449 25.304 19.7657 24.5195 20.2071C23.737 20.6471 23.1041 21.2993 22.6986 22.0835C22.2689 22.869 22.0546 23.813 22.0546 24.9168C22.0546 26.0205 22.2822 26.9892 22.7374 27.8229C23.1926 28.6565 23.8367 29.307 24.672 29.7732C25.5074 30.2147 26.4674 30.4354 27.5546 30.4354C28.4385 30.4449 29.3153 30.2824 30.1333 29.9575C30.9203 29.6545 31.6225 29.1758 32.1829 28.5602L34.8379 31.1716C33.9646 32.1686 32.8596 32.9501 31.6139 33.4519C30.3404 33.9688 28.9726 34.2315 27.5921 34.2245L27.5933 34.2256ZM46.9845 34.2256C45.2145 34.2256 43.6092 33.8206 42.1673 33.0104C40.7444 32.1947 39.5572 31.0436 38.7157 29.664C37.8803 28.2643 37.4638 26.7074 37.4638 24.9907C37.4638 23.2741 37.8803 21.7289 38.7157 20.3551C39.5752 18.9813 40.7254 17.8893 42.1673 17.0803C43.6079 16.2466 45.2145 15.8298 46.9857 15.8298C48.7799 15.8298 50.3997 16.2337 51.8404 17.0439C53.261 17.8346 54.4393 18.9773 55.2545 20.3551C56.1141 21.7289 56.5438 23.2741 56.5438 24.9907C56.5438 26.7074 56.1141 28.2643 55.2545 29.664C54.4342 31.0472 53.2579 32.2002 51.8404 33.0104C50.3997 33.8206 48.7799 34.2245 46.9857 34.2245L46.9845 34.2256ZM46.9845 30.325C48.022 30.325 48.9324 30.1043 49.7157 29.6628C50.5117 29.2107 51.1572 28.5464 51.5753 27.7489C52.0305 26.9399 52.2581 26.0205 52.2581 24.9896C52.2581 23.9598 52.0305 23.0522 51.5753 22.2678C51.1392 21.5024 50.4963 20.8667 49.7157 20.4291C48.9324 19.9629 48.0208 19.7293 46.9845 19.7293C45.9736 19.7293 45.0632 19.9629 44.2532 20.4279C43.4729 20.866 42.8304 21.5021 42.3949 22.2678C41.9651 23.0534 41.7496 23.9598 41.7496 24.9907C41.7496 26.0205 41.9651 26.9399 42.3949 27.7501C42.8278 28.537 43.4693 29.1977 44.2532 29.664C45.0632 30.1043 45.9724 30.325 46.9845 30.325ZM69.0039 34.2256C67.6141 34.2256 66.3744 33.9438 65.2872 33.3802C64.2265 32.8158 63.3372 31.991 62.7085 30.9884C62.1008 29.9833 61.7969 28.842 61.7969 27.5669V22.4897C61.7969 21.2146 62.1129 20.0745 62.7448 19.0682C63.3684 18.0708 64.2603 17.2569 65.3247 16.714C66.4119 16.1245 67.6383 15.831 69.0052 15.831C70.648 15.831 72.1287 16.2478 73.4434 17.0815C74.7818 17.8892 75.8696 19.0334 76.5911 20.3927C77.3757 21.7665 77.7667 23.3234 77.7667 25.0659C77.7667 26.7825 77.3756 28.3395 76.5924 29.7379C75.862 31.0816 74.7749 32.2118 73.4434 33.0115C72.1274 33.8217 70.6468 34.2256 69.0039 34.2256ZM68.3223 30.4002C69.3332 30.4002 70.2182 30.1794 70.9773 29.7379C71.7563 29.2771 72.387 28.6141 72.7982 27.824C73.2534 27.015 73.481 26.0827 73.481 25.0295C73.481 23.9727 73.2534 23.0416 72.7982 22.2326C72.3927 21.4484 71.7598 20.7962 70.9773 20.3563C70.2182 19.8901 69.3332 19.6576 68.3211 19.6576C67.3102 19.6576 66.4119 19.8901 65.6286 20.3563C64.8461 20.7962 64.2132 21.4484 63.8078 22.2326C63.378 23.0428 63.1625 23.9739 63.1625 25.0283C63.1625 26.0827 63.378 27.015 63.8078 27.824C64.2376 28.6342 64.8441 29.2718 65.6286 29.7379C66.4119 30.1794 67.3102 30.4002 68.3223 30.4002ZM59.2545 41.2167V16.1973H63.4289V20.9434L62.7073 25.2479L63.4289 29.516V41.2155H59.2557L59.2545 41.2167ZM80.5016 33.8581V16.1973H84.6747V33.857L80.5016 33.8581ZM84.6747 24.035L83.2328 23.3363C83.2328 21.1042 83.7389 19.3019 84.7498 17.9281C85.7873 16.5308 87.3418 15.831 89.4157 15.831C90.3261 15.831 91.1481 15.9907 91.8818 16.3089C92.6154 16.6283 93.2982 17.1425 93.9302 17.8541L91.199 20.577C90.8968 20.2513 90.5198 19.9991 90.0985 19.8408C89.6478 19.6861 89.1721 19.6114 88.6941 19.6201C87.5319 19.6201 86.5706 19.9758 85.8127 20.6874C85.0537 21.3989 84.6747 22.5144 84.6747 24.035ZM102.98 34.2268C101.21 34.2268 99.6046 33.8217 98.1627 33.0115C96.7397 32.1961 95.5524 31.0449 94.7111 29.6651C93.8757 28.2655 93.4593 26.7086 93.4593 24.9919C93.4593 23.2753 93.8757 21.7301 94.7111 20.3563C95.5707 18.9825 96.7208 17.8905 98.1627 17.0815C99.6046 16.2478 101.21 15.831 102.98 15.831C104.775 15.831 106.394 16.2349 107.836 17.0451C109.257 17.8346 110.436 18.9776 111.25 20.3563C112.109 21.7301 112.539 23.2753 112.539 24.9919C112.539 26.7086 112.109 28.2655 111.25 29.6651C110.43 31.0485 109.253 32.2017 107.836 33.0115C106.394 33.8217 104.775 34.2256 102.98 34.2256V34.2268ZM102.98 30.3262C104.017 30.3262 104.928 30.1055 105.711 29.664C106.507 29.2117 107.152 28.5474 107.571 27.7501C108.026 26.941 108.254 26.0217 108.254 24.9907C108.254 23.961 108.026 23.0534 107.571 22.269C107.135 21.5035 106.492 20.8678 105.711 20.4302C104.928 19.9641 104.017 19.7304 102.98 19.7304C101.969 19.7304 101.059 19.9641 100.249 20.4291C99.4684 20.8673 98.826 21.5034 98.3903 22.269C97.9605 23.0545 97.745 23.961 97.745 24.9919C97.745 26.0217 97.9605 26.941 98.3903 27.7512C98.8455 28.5614 99.4653 29.1978 100.249 29.6651C101.059 30.1055 101.969 30.3262 102.98 30.3262ZM117.235 33.8581V13.8795C117.235 12.5304 117.539 11.3409 118.146 10.31C118.767 9.29188 119.658 8.45379 120.726 7.88298C121.838 7.29472 123.116 7 124.557 7C125.67 7 126.618 7.18435 127.403 7.55186C128.227 7.94863 128.971 8.48415 129.602 9.13348L126.909 11.746C126.621 11.4628 126.288 11.2264 125.923 11.0462C125.568 10.8748 125.113 10.7891 124.557 10.7891C123.545 10.7891 122.762 11.0591 122.205 11.5993C121.674 12.1135 121.409 12.8615 121.409 13.8419V33.857L117.235 33.8581ZM112.873 19.8772V16.1985H126.909V19.8772H112.873ZM134.671 34.0425L126.895 16.1973H131.485L136.796 29.2953H135.468L141.082 16.1973H145.71L137.251 34.0413L134.671 34.0425ZM129.246 41.2167L134.899 29.9211L137.251 34.0413L133.875 41.2167H129.246Z" fill="#0F172A"/>
</svg>
