<svg width="96" height="22" viewBox="0 0 96 22" fill="none" xmlns="http://www.w3.org/2000/svg">
<path d="M0.0113884 0H13.0731V2.53846H7.93723V16.8084H5.11308V2.53846H0V0H0.0113884ZM12.5151 4.63803H14.9293V6.9867H14.9748C15.0546 6.65456 15.2026 6.33429 15.419 6.02588C15.6353 5.71747 15.8972 5.42092 16.2047 5.17182C16.5122 4.91086 16.8538 4.7092 17.2296 4.54313C17.6054 4.38893 17.9926 4.30589 18.3798 4.30589C18.6758 4.30589 18.8922 4.31776 19.0061 4.32962C19.12 4.34148 19.2338 4.3652 19.3591 4.37707V6.96298C19.1769 6.92739 18.9947 6.90367 18.8011 6.87994C18.6075 6.85622 18.4253 6.84436 18.2431 6.84436C17.8104 6.84436 17.4004 6.93925 17.0132 7.11718C16.6261 7.29511 16.2958 7.56794 16.0111 7.91193C15.7264 8.26779 15.4987 8.69482 15.3279 9.21675C15.157 9.73868 15.0773 10.3318 15.0773 11.0079V16.7965H12.5037V4.63803H12.5151ZM31.1909 16.8084H28.6629V15.1121H28.6173C28.2985 15.729 27.8316 16.2153 27.2052 16.583C26.5789 16.9508 25.9412 17.1405 25.2921 17.1405C23.7548 17.1405 22.6388 16.7491 21.9555 15.9543C21.2722 15.1596 20.9306 13.9615 20.9306 12.3602V4.63803H23.5042V12.0992C23.5042 13.1668 23.6978 13.926 24.0964 14.3648C24.4836 14.8037 25.0416 15.0291 25.7476 15.0291C26.2942 15.0291 26.7383 14.9461 27.1028 14.7682C27.4672 14.5902 27.7632 14.3648 27.9796 14.0683C28.2074 13.7836 28.3668 13.4277 28.4693 13.0244C28.5718 12.6211 28.6173 12.1822 28.6173 11.7078V4.64989H31.1909V16.8084ZM35.5752 12.9058C35.6549 13.6887 35.9396 14.2344 36.4293 14.5546C36.9303 14.863 37.5225 15.0291 38.2172 15.0291C38.4563 15.0291 38.7296 15.0054 39.0371 14.9698C39.3445 14.9342 39.6406 14.8512 39.9025 14.7444C40.1758 14.6377 40.3922 14.4716 40.5744 14.2581C40.7452 14.0446 40.8249 13.7717 40.8136 13.4277C40.8022 13.0838 40.6769 12.7991 40.4492 12.5855C40.2214 12.3602 39.9367 12.1941 39.5837 12.0518C39.2307 11.9213 38.8321 11.8027 38.3766 11.7078C37.9211 11.6129 37.4656 11.5061 36.9987 11.3994C36.5204 11.2926 36.0535 11.1503 35.6094 10.996C35.1653 10.8418 34.7667 10.6283 34.4137 10.3555C34.0606 10.0945 33.776 9.75054 33.571 9.33537C33.3546 8.9202 33.2521 8.41014 33.2521 7.79331C33.2521 7.12904 33.4115 6.58339 33.719 6.13264C34.0265 5.68188 34.4251 5.32602 34.8919 5.0532C35.3702 4.78037 35.8941 4.59058 36.4748 4.47196C37.0556 4.36521 37.6136 4.30589 38.1374 4.30589C38.741 4.30589 39.3218 4.37707 39.8684 4.50755C40.415 4.63803 40.916 4.85155 41.3602 5.15996C41.8043 5.45651 42.1687 5.84795 42.4648 6.32243C42.7609 6.79691 42.9431 7.37815 43.0228 8.05428H40.3353C40.21 7.41373 39.9367 6.97484 39.4926 6.76132C39.0485 6.53595 38.536 6.42919 37.9666 6.42919C37.7844 6.42919 37.5681 6.44105 37.3175 6.47663C37.067 6.51222 36.8392 6.57153 36.6115 6.65456C36.3951 6.7376 36.2129 6.86808 36.0535 7.03415C35.9055 7.20021 35.8257 7.41373 35.8257 7.68656C35.8257 8.01869 35.9396 8.27966 36.156 8.48131C36.3723 8.68296 36.657 8.84903 37.0101 8.99137C37.3631 9.12185 37.7617 9.24047 38.2172 9.33537C38.6727 9.43027 39.1396 9.53702 39.6178 9.64378C40.0847 9.75054 40.5402 9.89288 40.9958 10.0471C41.4513 10.2013 41.8498 10.4148 42.2029 10.6876C42.5559 10.9605 42.8406 11.2926 43.0569 11.6959C43.2733 12.0992 43.3872 12.6093 43.3872 13.2024C43.3872 13.926 43.2278 14.5309 42.9089 15.041C42.59 15.5392 42.1801 15.9543 41.679 16.2628C41.178 16.5712 40.6086 16.8084 39.9936 16.9508C39.3787 17.0931 38.7638 17.1643 38.1602 17.1643C37.42 17.1643 36.7368 17.0812 36.1104 16.9033C35.4841 16.7254 34.9375 16.4644 34.482 16.1204C34.0265 15.7646 33.6621 15.3257 33.4002 14.8037C33.1382 14.2818 33.0016 13.6531 32.9788 12.9295H35.5752V12.9058ZM44.0704 4.63803H46.0177V0.984544H48.5914V4.63803H50.9145V6.6427H48.5914V13.1431C48.5914 13.4277 48.6027 13.665 48.6255 13.8785C48.6483 14.0802 48.7052 14.2581 48.785 14.4004C48.8647 14.5428 48.9899 14.6495 49.1608 14.7207C49.3316 14.7919 49.5479 14.8275 49.844 14.8275C50.0262 14.8275 50.2084 14.8275 50.3906 14.8156C50.5728 14.8037 50.755 14.78 50.9372 14.7326V16.8084C50.6525 16.844 50.3678 16.8677 50.1059 16.9033C49.8326 16.9389 49.5593 16.9508 49.2746 16.9508C48.5914 16.9508 48.0448 16.8796 47.6348 16.7491C47.2248 16.6186 46.8946 16.417 46.6668 16.156C46.4277 15.895 46.2797 15.5748 46.1886 15.1833C46.1088 14.7919 46.0519 14.3411 46.0405 13.8429V6.66643H44.0932V4.63803H44.0704ZM52.7365 4.63803H55.1735V6.28684H55.219C55.5834 5.57513 56.0845 5.07692 56.7336 4.76851C57.3827 4.4601 58.0773 4.30589 58.8403 4.30589C59.7627 4.30589 60.5599 4.47196 61.2431 4.81596C61.9264 5.14809 62.4958 5.61071 62.9513 6.20381C63.4068 6.79691 63.737 7.4849 63.9648 8.26779C64.1925 9.05068 64.3064 9.89288 64.3064 10.7825C64.3064 11.601 64.2039 12.3958 63.9989 13.1549C63.794 13.926 63.4865 14.6021 63.0765 15.1952C62.6666 15.7883 62.1427 16.2509 61.505 16.6068C60.8673 16.9626 60.1271 17.1405 59.2617 17.1405C58.8859 17.1405 58.5101 17.105 58.1343 17.0338C57.7585 16.9626 57.3941 16.844 57.0524 16.6898C56.7108 16.5356 56.3806 16.3339 56.0959 16.0848C55.7998 15.8357 55.5606 15.551 55.3557 15.2308H55.3101V21.3041H52.7365V4.63803ZM61.7328 10.7351C61.7328 10.1894 61.6645 9.65564 61.5278 9.13372C61.3912 8.61179 61.1862 8.16104 60.9129 7.75773C60.6396 7.35442 60.2979 7.03415 59.8994 6.79691C59.4894 6.55967 59.0225 6.42919 58.4987 6.42919C57.4168 6.42919 56.5969 6.82063 56.0503 7.60352C55.5037 8.38641 55.2304 9.43027 55.2304 10.7351C55.2304 11.3519 55.2987 11.9213 55.4468 12.4432C55.5948 12.9651 55.7998 13.4159 56.0959 13.7955C56.3806 14.1751 56.7222 14.4716 57.1208 14.6851C57.5193 14.9105 57.9862 15.0173 58.5101 15.0173C59.1022 15.0173 59.5919 14.8868 60.0019 14.6377C60.4118 14.3886 60.7421 14.0564 61.004 13.665C61.2659 13.2617 61.4595 12.8109 61.5734 12.3009C61.6758 11.7908 61.7328 11.2689 61.7328 10.7351ZM66.2765 0H68.8501V2.53846H66.2765V0ZM66.2765 4.63803H68.8501V16.8084H66.2765V4.63803ZM71.1504 0H73.7241V16.8084H71.1504V0ZM81.6157 17.1405C80.6819 17.1405 79.8506 16.9745 79.1218 16.6542C78.393 16.3339 77.7781 15.8832 77.2656 15.3257C76.7646 14.7563 76.3774 14.0802 76.1155 13.2973C75.8536 12.5144 75.7169 11.6485 75.7169 10.7114C75.7169 9.78612 75.8536 8.93206 76.1155 8.14917C76.3774 7.36628 76.7646 6.69015 77.2656 6.12078C77.7667 5.5514 78.393 5.11251 79.1218 4.79224C79.8506 4.47196 80.6819 4.30589 81.6157 4.30589C82.5495 4.30589 83.3808 4.47196 84.1096 4.79224C84.8384 5.11251 85.4534 5.56326 85.9658 6.12078C86.4669 6.69015 86.8541 7.36628 87.116 8.14917C87.3779 8.93206 87.5146 9.78612 87.5146 10.7114C87.5146 11.6485 87.3779 12.5144 87.116 13.2973C86.8541 14.0802 86.4669 14.7563 85.9658 15.3257C85.4648 15.895 84.8384 16.3339 84.1096 16.6542C83.3808 16.9745 82.5495 17.1405 81.6157 17.1405ZM81.6157 15.0173C82.1851 15.0173 82.6862 14.8868 83.1075 14.6377C83.5289 14.3886 83.8705 14.0564 84.1438 13.6531C84.4171 13.2498 84.6107 12.7872 84.7474 12.2771C84.8726 11.7671 84.9409 11.2451 84.9409 10.7114C84.9409 10.1894 84.8726 9.67937 84.7474 9.15744C84.6221 8.63551 84.4171 8.18476 84.1438 7.78145C83.8705 7.37814 83.5289 7.05787 83.1075 6.80877C82.6862 6.55967 82.1851 6.42919 81.6157 6.42919C81.0463 6.42919 80.5453 6.55967 80.1239 6.80877C79.7026 7.05787 79.361 7.39001 79.0877 7.78145C78.8144 8.18476 78.6208 8.63551 78.4841 9.15744C78.3588 9.67937 78.2905 10.1894 78.2905 10.7114C78.2905 11.2451 78.3588 11.7671 78.4841 12.2771C78.6094 12.7872 78.8144 13.2498 79.0877 13.6531C79.361 14.0564 79.7026 14.3886 80.1239 14.6377C80.5453 14.8986 81.0463 15.0173 81.6157 15.0173ZM88.2662 4.63803H90.2135V0.984544H92.7871V4.63803H95.1102V6.6427H92.7871V13.1431C92.7871 13.4277 92.7985 13.665 92.8212 13.8785C92.844 14.0802 92.901 14.2581 92.9807 14.4004C93.0604 14.5428 93.1857 14.6495 93.3565 14.7207C93.5273 14.7919 93.7437 14.8275 94.0397 14.8275C94.2219 14.8275 94.4041 14.8275 94.5863 14.8156C94.7685 14.8037 94.9507 14.78 95.1329 14.7326V16.8084C94.8483 16.844 94.5636 16.8677 94.3016 16.9033C94.0283 16.9389 93.755 16.9508 93.4703 16.9508C92.7871 16.9508 92.2405 16.8796 91.8305 16.7491C91.4206 16.6186 91.0903 16.417 90.8626 16.156C90.6234 15.895 90.4754 15.5748 90.3843 15.1833C90.3046 14.7919 90.2476 14.3411 90.2362 13.8429V6.66643H88.2889V4.63803H88.2662Z" fill="#0F172A"/>
</svg>
